<svg id="my-svg" width="100%" xmlns="http://www.w3.org/2000/svg" xmlns:xlink="http://www.w3.org/1999/xlink" class="flowchart" style="max-width: 983.688px; background-color: transparent;" viewBox="0 0 983.6875 701.9705200195312" role="graphics-document document" aria-roledescription="flowchart-v2"><style>#my-svg{font-family:"trebuchet ms",verdana,arial,sans-serif;font-size:16px;fill:#333;}@keyframes edge-animation-frame{from{stroke-dashoffset:0;}}@keyframes dash{to{stroke-dashoffset:0;}}#my-svg .edge-animation-slow{stroke-dasharray:9,5!important;stroke-dashoffset:900;animation:dash 50s linear infinite;stroke-linecap:round;}#my-svg .edge-animation-fast{stroke-dasharray:9,5!important;stroke-dashoffset:900;animation:dash 20s linear infinite;stroke-linecap:round;}#my-svg .error-icon{fill:#552222;}#my-svg .error-text{fill:#552222;stroke:#552222;}#my-svg .edge-thickness-normal{stroke-width:1px;}#my-svg .edge-thickness-thick{stroke-width:3.5px;}#my-svg .edge-pattern-solid{stroke-dasharray:0;}#my-svg .edge-thickness-invisible{stroke-width:0;fill:none;}#my-svg .edge-pattern-dashed{stroke-dasharray:3;}#my-svg .edge-pattern-dotted{stroke-dasharray:2;}#my-svg .marker{fill:#333333;stroke:#333333;}#my-svg .marker.cross{stroke:#333333;}#my-svg svg{font-family:"trebuchet ms",verdana,arial,sans-serif;font-size:16px;}#my-svg p{margin:0;}#my-svg .label{font-family:"trebuchet ms",verdana,arial,sans-serif;color:#333;}#my-svg .cluster-label text{fill:#333;}#my-svg .cluster-label span{color:#333;}#my-svg .cluster-label span p{background-color:transparent;}#my-svg .label text,#my-svg span{fill:#333;color:#333;}#my-svg .node rect,#my-svg .node circle,#my-svg .node ellipse,#my-svg .node polygon,#my-svg .node path{fill:#ECECFF;stroke:#9370DB;stroke-width:1px;}#my-svg .rough-node .label text,#my-svg .node .label text,#my-svg .image-shape .label,#my-svg .icon-shape .label{text-anchor:middle;}#my-svg .node .katex path{fill:#000;stroke:#000;stroke-width:1px;}#my-svg .rough-node .label,#my-svg .node .label,#my-svg .image-shape .label,#my-svg .icon-shape .label{text-align:center;}#my-svg .node.clickable{cursor:pointer;}#my-svg .root .anchor path{fill:#333333!important;stroke-width:0;stroke:#333333;}#my-svg .arrowheadPath{fill:#333333;}#my-svg .edgePath .path{stroke:#333333;stroke-width:1px;}#my-svg .flowchart-link{stroke:#333333;fill:none;}#my-svg .edgeLabel{background-color:rgba(232,232,232, 0.8);text-align:center;}#my-svg .edgeLabel p{background-color:rgba(232,232,232, 0.8);}#my-svg .edgeLabel rect{opacity:0.5;background-color:rgba(232,232,232, 0.8);fill:rgba(232,232,232, 0.8);}#my-svg .labelBkg{background-color:rgba(232, 232, 232, 0.5);}#my-svg .cluster rect{fill:#ffffde;stroke:#aaaa33;stroke-width:1px;}#my-svg .cluster text{fill:#333;}#my-svg .cluster span{color:#333;}#my-svg div.mermaidTooltip{position:absolute;text-align:center;max-width:200px;padding:2px;font-family:"trebuchet ms",verdana,arial,sans-serif;font-size:12px;background:hsl(80, 100%, 96.2745098039%);border:1px solid #aaaa33;border-radius:2px;pointer-events:none;z-index:100;}#my-svg .flowchartTitleText{text-anchor:middle;font-size:18px;fill:#333;}#my-svg rect.text{fill:none;stroke-width:0;}#my-svg .icon-shape,#my-svg .image-shape{background-color:rgba(232,232,232, 0.8);text-align:center;}#my-svg .icon-shape p,#my-svg .image-shape p{background-color:rgba(232,232,232, 0.8);padding:2px;}#my-svg .icon-shape .label rect,#my-svg .image-shape .label rect{opacity:0.5;background-color:rgba(232,232,232, 0.8);fill:rgba(232,232,232, 0.8);}#my-svg .label-icon{display:inline-block;height:1em;overflow:visible;vertical-align:-0.125em;}#my-svg .node .label-icon path{fill:currentColor;stroke:revert;stroke-width:revert;}#my-svg .node .neo-node{stroke:#9370DB;}#my-svg [data-look="neo"].node rect,#my-svg [data-look="neo"].cluster rect,#my-svg [data-look="neo"].node polygon{stroke:#9370DB;filter:drop-shadow(1px 2px 2px rgba(185, 185, 185, 1));}#my-svg [data-look="neo"].node path{stroke:#9370DB;stroke-width:1px;}#my-svg [data-look="neo"].node .outer-path{filter:drop-shadow(1px 2px 2px rgba(185, 185, 185, 1));}#my-svg [data-look="neo"].node .neo-line path{stroke:#9370DB;filter:none;}#my-svg [data-look="neo"].node circle{stroke:#9370DB;filter:drop-shadow(1px 2px 2px rgba(185, 185, 185, 1));}#my-svg [data-look="neo"].node circle .state-start{fill:#000000;}#my-svg [data-look="neo"].icon-shape .icon{fill:#9370DB;filter:drop-shadow(1px 2px 2px rgba(185, 185, 185, 1));}#my-svg [data-look="neo"].icon-shape .icon-neo path{stroke:#9370DB;filter:drop-shadow(1px 2px 2px rgba(185, 185, 185, 1));}#my-svg :root{--mermaid-font-family:"trebuchet ms",verdana,arial,sans-serif;}#my-svg .boundary&gt;*{stroke-dasharray:4,4!important;fill:rgb(250, 250, 250)!important;color:rgb(34, 34, 34)!important;}#my-svg .boundary span{stroke-dasharray:4,4!important;fill:rgb(250, 250, 250)!important;color:rgb(34, 34, 34)!important;}#my-svg .boundary tspan{fill:rgb(34, 34, 34)!important;}</style><g><marker id="my-svg_flowchart-v2-pointEnd" class="marker flowchart-v2" viewBox="0 0 10 10" refX="5" refY="5" markerUnits="userSpaceOnUse" markerWidth="8" markerHeight="8" orient="auto"><path d="M 0 0 L 10 5 L 0 10 z" class="arrowMarkerPath" style="stroke-width: 1; stroke-dasharray: 1, 0;"/></marker><marker id="my-svg_flowchart-v2-pointStart" class="marker flowchart-v2" viewBox="0 0 10 10" refX="4.5" refY="5" markerUnits="userSpaceOnUse" markerWidth="8" markerHeight="8" orient="auto"><path d="M 0 5 L 10 10 L 10 0 z" class="arrowMarkerPath" style="stroke-width: 1; stroke-dasharray: 1, 0;"/></marker><marker id="my-svg_flowchart-v2-pointEnd-margin" class="marker flowchart-v2" viewBox="0 0 11.5 14" refX="11.5" refY="7" markerUnits="userSpaceOnUse" markerWidth="10.5" markerHeight="14" orient="auto"><path d="M 0 0 L 11.5 7 L 0 14 z" class="arrowMarkerPath" style="stroke-width: 0; stroke-dasharray: 1, 0;"/></marker><marker id="my-svg_flowchart-v2-pointStart-margin" class="marker flowchart-v2" viewBox="0 0 11.5 14" refX="1" refY="7" markerUnits="userSpaceOnUse" markerWidth="11.5" markerHeight="14" orient="auto"><polygon points="0,7 11.5,14 11.5,0" class="arrowMarkerPath" style="stroke-width: 0; stroke-dasharray: 1, 0;"/></marker><marker id="my-svg_flowchart-v2-circleEnd" class="marker flowchart-v2" viewBox="0 0 10 10" refX="11" refY="5" markerUnits="userSpaceOnUse" markerWidth="11" markerHeight="11" orient="auto"><circle cx="5" cy="5" r="5" class="arrowMarkerPath" style="stroke-width: 1; stroke-dasharray: 1, 0;"/></marker><marker id="my-svg_flowchart-v2-circleStart" class="marker flowchart-v2" viewBox="0 0 10 10" refX="-1" refY="5" markerUnits="userSpaceOnUse" markerWidth="11" markerHeight="11" orient="auto"><circle cx="5" cy="5" r="5" class="arrowMarkerPath" style="stroke-width: 1; stroke-dasharray: 1, 0;"/></marker><marker id="my-svg_flowchart-v2-circleEnd-margin" class="marker flowchart-v2" viewBox="0 0 10 10" refY="5" refX="12.25" markerUnits="userSpaceOnUse" markerWidth="14" markerHeight="14" orient="auto"><circle cx="5" cy="5" r="5" class="arrowMarkerPath" style="stroke-width: 0; stroke-dasharray: 1, 0;"/></marker><marker id="my-svg_flowchart-v2-circleStart-margin" class="marker flowchart-v2" viewBox="0 0 10 10" refX="-2" refY="5" markerUnits="userSpaceOnUse" markerWidth="14" markerHeight="14" orient="auto"><circle cx="5" cy="5" r="5" class="arrowMarkerPath" style="stroke-width: 0; stroke-dasharray: 1, 0;"/></marker><marker id="my-svg_flowchart-v2-crossEnd" class="marker cross flowchart-v2" viewBox="0 0 11 11" refX="12" refY="5.2" markerUnits="userSpaceOnUse" markerWidth="11" markerHeight="11" orient="auto"><path d="M 1,1 l 9,9 M 10,1 l -9,9" class="arrowMarkerPath" style="stroke-width: 2; stroke-dasharray: 1, 0;"/></marker><marker id="my-svg_flowchart-v2-crossStart" class="marker cross flowchart-v2" viewBox="0 0 11 11" refX="-1" refY="5.2" markerUnits="userSpaceOnUse" markerWidth="11" markerHeight="11" orient="auto"><path d="M 1,1 l 9,9 M 10,1 l -9,9" class="arrowMarkerPath" style="stroke-width: 2; stroke-dasharray: 1, 0;"/></marker><marker id="my-svg_flowchart-v2-crossEnd-margin" class="marker cross flowchart-v2" viewBox="0 0 15 15" refX="17.7" refY="7.5" markerUnits="userSpaceOnUse" markerWidth="12" markerHeight="12" orient="auto"><path d="M 1,1 L 14,14 M 1,14 L 14,1" class="arrowMarkerPath" style="stroke-width: 2.5;"/></marker><marker id="my-svg_flowchart-v2-crossStart-margin" class="marker cross flowchart-v2" viewBox="0 0 15 15" refX="-3.5" refY="7.5" markerUnits="userSpaceOnUse" markerWidth="12" markerHeight="12" orient="auto"><path d="M 1,1 L 14,14 M 1,14 L 14,1" class="arrowMarkerPath" style="stroke-width: 2.5; stroke-dasharray: 1, 0;"/></marker><g class="root"><g class="clusters"><g class="cluster boundary" id="my-svg-node" data-look="classic"><rect style="stroke-dasharray:4 4 !important;fill:#fafafa !important" x="8" y="145" width="707.640625" height="548.9705429077148"/><g class="cluster-label" transform="translate(319.578125, 145)"><foreignObject width="84.484375" height="24"><div xmlns="http://www.w3.org/1999/xhtml" style="display: table-cell; white-space: nowrap; line-height: 1.5;"><span class="nodeLabel" style="color:#222 !important"><p>raft-kv node</p></span></div></foreignObject></g></g></g><g class="edgePaths"><path d="M371.879,71.5L371.796,77.583C371.712,83.667,371.546,95.833,371.462,108.083C371.379,120.333,371.379,132.667,371.379,142.333C371.379,152,371.379,159,371.379,162.5L371.379,166" id="my-svg-L_client_rs_0" class="edge-thickness-normal edge-pattern-solid edge-thickness-normal edge-pattern-solid flowchart-link" style=";" data-edge="true" data-et="edge" data-id="L_client_rs_0" data-points="W3sieCI6MzcxLjg3ODkwNjI1LCJ5Ijo3MS41fSx7IngiOjM3MS4zNzg5MDYyNSwieSI6MTA4fSx7IngiOjM3MS4zNzg5MDYyNSwieSI6MTQ1fSx7IngiOjM3MS4zNzg5MDYyNSwieSI6MTcwfV0=" data-look="classic" marker-end="url(#my-svg_flowchart-v2-pointEnd)"/><path d="M266.056,248L244.001,256.167C221.946,264.333,177.836,280.667,171.754,296.705C165.673,312.744,197.619,328.488,213.592,336.36L229.565,344.232" id="my-svg-L_rs_raft_0" class="edge-thickness-normal edge-pattern-solid edge-thickness-normal edge-pattern-solid flowchart-link" style=";" data-edge="true" data-et="edge" data-id="L_rs_raft_0" data-points="W3sieCI6MjY2LjA1NTcwODQ1MTcwNDU2LCJ5IjoyNDh9LHsieCI6MTMzLjcyNjU2MjUsInkiOjI5N30seyJ4IjoyMzMuMTUyNTM5MDYyNSwieSI6MzQ2fV0=" data-look="classic" marker-end="url(#my-svg_flowchart-v2-pointEnd)"/><path d="M348.474,248L343.677,256.167C338.881,264.333,329.288,280.667,325.764,296.343C322.24,312.019,324.784,327.037,326.056,334.547L327.328,342.056" id="my-svg-L_rs_raft_2" class="edge-thickness-normal edge-pattern-solid edge-thickness-normal edge-pattern-solid flowchart-link" style=";" data-edge="true" data-et="edge" data-id="L_rs_raft_2" data-points="W3sieCI6MzQ4LjQ3MzY3NzIwMTcwNDU2LCJ5IjoyNDh9LHsieCI6MzE5LjY5NTMxMjUsInkiOjI5N30seyJ4IjozMjcuOTk2NjAxNTYyNSwieSI6MzQ2fV0=" data-look="classic" marker-end="url(#my-svg_flowchart-v2-pointEnd)"/><path d="M460.843,248L479.577,256.167C498.311,264.333,535.778,280.667,535.803,296.74C535.828,312.814,498.41,328.629,479.701,336.536L460.992,344.443" id="my-svg-L_rs_raft_3" class="edge-thickness-normal edge-pattern-solid edge-thickness-normal edge-pattern-solid flowchart-link" style=";" data-edge="true" data-et="edge" data-id="L_rs_raft_3" data-points="W3sieCI6NDYwLjg0Mjc3MzQzNzUsInkiOjI0OH0seyJ4Ijo1NzMuMjQ2MDkzNzUsInkiOjI5N30seyJ4Ijo0NTcuMzA3NSwieSI6MzQ2fV0=" data-look="classic" marker-end="url(#my-svg_flowchart-v2-pointEnd)"/><path d="M470.391,446.229L498.815,456.691C527.24,467.153,584.089,488.076,635.88,510.156C687.671,532.235,734.405,555.47,757.772,567.087L781.139,578.705" id="my-svg-L_raft_peers_0" class="edge-thickness-normal edge-pattern-solid edge-thickness-normal edge-pattern-solid flowchart-link" style=";" data-edge="true" data-et="edge" data-id="L_raft_peers_0" data-points="W3sieCI6NDY2LjYzNjcxODc1LCJ5Ijo0NDQuODQ3Mzk2MDUzOTY1OTV9LHsieCI6NjQwLjkzNzUsInkiOjUwOX0seyJ4Ijo3ODQuNzIwNzAyMzcxOTUyNywieSI6NTgwLjQ4NTI3MTQ1Mzg1NzR9XQ==" data-look="classic" marker-start="url(#my-svg_flowchart-v2-pointStart)" marker-end="url(#my-svg_flowchart-v2-pointEnd)"/><path d="M360.171,448L364.863,458.167C369.554,468.333,378.937,488.667,383.629,508.333C388.32,528,388.32,547,388.32,556.5L388.32,566" id="my-svg-L_raft_wal_0" class="edge-thickness-normal edge-pattern-solid edge-thickness-normal edge-pattern-solid flowchart-link" style=";" data-edge="true" data-et="edge" data-id="L_raft_wal_0" data-points="W3sieCI6MzYwLjE3MTIxMjMzMjU4OTMsInkiOjQ0OH0seyJ4IjozODguMzIwMzEyNSwieSI6NTA5fSx7IngiOjM4OC4zMjAzMTI1LCJ5Ijo1NzB9XQ==" data-look="classic" marker-end="url(#my-svg_flowchart-v2-pointEnd)"/><path d="M247.367,448L229.572,458.167C211.776,468.333,176.185,488.667,158.389,510.081C140.594,531.495,140.594,553.99,140.594,565.238L140.594,576.485" id="my-svg-L_raft_kv_0" class="edge-thickness-normal edge-pattern-solid edge-thickness-normal edge-pattern-solid flowchart-link" style=";" data-edge="true" data-et="edge" data-id="L_raft_kv_0" data-points="W3sieCI6MjQ3LjM2NzE1MjYyMjc2Nzg2LCJ5Ijo0NDh9LHsieCI6MTQwLjU5Mzc1LCJ5Ijo1MDl9LHsieCI6MTQwLjU5Mzc1LCJ5Ijo1ODAuNDg1MjcxNDUzODU3NH1d" data-look="classic" marker-end="url(#my-svg_flowchart-v2-pointEnd)"/></g><g class="edgeLabels"><g class="edgeLabel" transform="translate(371.37890625, 108)"><g class="label" data-id="L_client_rs_0" transform="translate(-76.6171875, -12)"><foreignObject width="153.234375" height="24"><div xmlns="http://www.w3.org/1999/xhtml" class="labelBkg" style="display: table-cell; white-space: nowrap; line-height: 1.5; max-width: 200px; text-align: center;"><span class="edgeLabel"><p>PUT / GET / DELETE</p></span></div></foreignObject></g></g><g class="edgeLabel" transform="translate(133.7265625, 297)"><g class="label" data-id="L_rs_raft_0" transform="translate(-64.484375, -24)"><foreignObject width="128.96875" height="48"><div xmlns="http://www.w3.org/1999/xhtml" class="labelBkg" style="display: table-cell; white-space: nowrap; line-height: 1.5; max-width: 200px; text-align: center;"><span class="edgeLabel"><p>AppendCommand<br />(writes)</p></span></div></foreignObject></g></g><g class="edgeLabel" transform="translate(321.50018, 293.92692)"><g class="label" data-id="L_rs_raft_2" transform="translate(-68.03125, -24)"><foreignObject width="136.0625" height="48"><div xmlns="http://www.w3.org/1999/xhtml" class="labelBkg" style="display: table-cell; white-space: nowrap; line-height: 1.5; max-width: 200px; text-align: center;"><span class="edgeLabel"><p>ReadIndex<br />(linearizable reads)</p></span></div></foreignObject></g></g><g class="edgeLabel" transform="translate(573.24609375, 297)"><g class="label" data-id="L_rs_raft_3" transform="translate(-97.8203125, -12)"><foreignObject width="195.640625" height="24"><div xmlns="http://www.w3.org/1999/xhtml" class="labelBkg" style="display: table-cell; white-space: nowrap; line-height: 1.5; max-width: 200px; text-align: center;"><span class="edgeLabel"><p>AddServer / RemoveServer</p></span></div></foreignObject></g></g><g class="edgeLabel" transform="translate(629.13239, 504.65505)"><g class="label" data-id="L_raft_peers_0" transform="translate(-54.703125, -36)"><foreignObject width="109.40625" height="72"><div xmlns="http://www.w3.org/1999/xhtml" class="labelBkg" style="display: table-cell; white-space: nowrap; line-height: 1.5; max-width: 200px; text-align: center;"><span class="edgeLabel"><p>RequestVote<br />AppendEntries<br />InstallSnapshot</p></span></div></foreignObject></g></g><g class="edgeLabel" transform="translate(388.3203125, 509)"><g class="label" data-id="L_raft_wal_0" transform="translate(-84.46875, -12)"><foreignObject width="168.9375" height="24"><div xmlns="http://www.w3.org/1999/xhtml" class="labelBkg" style="display: table-cell; white-space: nowrap; line-height: 1.5; max-width: 200px; text-align: center;"><span class="edgeLabel"><p>persist on every commit</p></span></div></foreignObject></g></g><g class="edgeLabel" transform="translate(140.59375, 509)"><g class="label" data-id="L_raft_kv_0" transform="translate(-56.0234375, -12)"><foreignObject width="112.046875" height="24"><div xmlns="http://www.w3.org/1999/xhtml" class="labelBkg" style="display: table-cell; white-space: nowrap; line-height: 1.5; max-width: 200px; text-align: center;"><span class="edgeLabel"><p>apply at commit</p></span></div></foreignObject></g></g></g><g class="nodes"><g class="node default" id="my-svg-flowchart-client-0" data-look="classic" transform="translate(371.37890625, 39.5)"><g class="basic label-container outer-path"><path d="M-50.421875 -31.5 C-11.01497968539229 -31.5, 28.39191562921542 -31.5, 50.421875 -31.5 C50.421875 -31.5, 50.421875 -31.5, 50.421875 -31.5 C51.131144589291125 -31.477255104780937, 51.84041417858225 -31.454510209561878, 52.44008692939246 -31.435279871635593 C53.23417573077903 -31.35867507999734, 54.0282645321656 -31.282070288359087, 54.45000559306194 -31.241385435432253 C54.93402747741459 -31.16313253081589, 55.418049361767245 -31.084879626199527, 56.443371804093225 -30.91911344521856 C56.95353021622094 -30.80267311674517, 57.46368862834865 -30.686232788271777, 58.41199439314948 -30.469788185729428 C58.8086522429759 -30.352062218000487, 59.20531009280233 -30.234336250271546, 60.34778386774405 -29.895256030836062 C60.777610473415486 -29.737075866675386, 61.207437079086915 -29.57889570251471, 62.24278565370028 -29.197877856399685 C62.67636043972934 -29.00594716016368, 63.1099352257584 -28.81401646392767, 64.08921278220308 -28.380519338926202 C64.57714924528567 -28.12596319867424, 65.06508570836826 -27.87140705842227, 65.87947788812403 -27.44653917988677 C66.47917216351784 -27.083000985948296, 67.07886643891166 -26.719462792009825, 67.60622438813228 -26.399775304092984 C68.05637236161296 -26.08577156438456, 68.50652033509364 -25.771767824676136, 69.2623567104733 -25.244529088840633 C69.8027270413696 -24.81359812980926, 70.34309737226589 -24.38266717077789, 70.84106945219533 -23.985547688627737 C71.32818640168068 -23.543160963513362, 71.81530335116604 -23.100774238398987, 72.33587534400982 -22.62800452807842 C72.83281812107936 -22.11487031099336, 73.32976089814888 -21.601736093908297, 73.74063190787243 -21.177478043231485 C74.11215616830592 -20.74106450659701, 74.4836804287394 -20.304650969962534, 75.04956669774293 -19.63992875855011 C75.36495465407067 -19.217337629504847, 75.68034261039841 -18.79474650045958, 76.2573010198041 -18.02167479384835 C76.57692367525135 -17.530648564380964, 76.89654633069858 -17.03962233491358, 77.3588720346684 -16.329365901781543 C77.66931849484365 -15.778136775627472, 77.97976495501891 -15.2269076494734, 78.3497531507495 -14.56995614258631 C78.59911190373305 -14.052157356593407, 78.84847065671657 -13.534358570600503, 79.22587262499809 -12.750675308355413 C79.51704305191775 -12.0314787244666, 79.80821347883742 -11.312282140577787, 79.98363029456745 -10.878999214271206 C80.11414978234512 -10.485895312541142, 80.2446692701228 -10.09279141081108, 80.61991237065482 -8.962618978877531 C80.81719915839807 -8.210278952577825, 81.01448594614132 -7.457938926278118, 81.13210423372745 -7.009409419623907 C81.25286425145606 -6.38933225122624, 81.37362426918469 -5.769255082828574, 81.51810117755518 -5.027396693551458 C81.57387443187363 -4.594830346732353, 81.62964768619209 -4.1622639999132485, 81.77631705789975 -3.024725316091981 C81.80752632195538 -2.538615836760995, 81.83873558601101 -2.052506357430008, 81.90569081032167 -1.0096246935071378 C81.90569081032167 -0.5328904845446327, 81.90569081032167 -0.05615627558212766, 81.90569081032167 1.00962469350713 C81.87144294400451 1.5430628557770425, 81.83719507768735 2.0765010180469554, 81.77631705789975 3.02472531609196 C81.70383434730887 3.586886906104667, 81.631351636718 4.149048496117374, 81.51810117755518 5.027396693551435 C81.40392983435194 5.613642410778123, 81.2897584911487 6.199888128004812, 81.13210423372745 7.0094094196239 C80.96251591167977 7.656123191635385, 80.7929275896321 8.30283696364687, 80.61991237065482 8.96261897887751 C80.41290910683675 9.586079828006435, 80.20590584301867 10.209540677135358, 79.98363029456746 10.878999214271184 C79.74996907991928 11.456146931984437, 79.5163078652711 12.033294649697687, 79.22587262499809 12.750675308355405 C78.92950938031578 13.366079927095834, 78.63314613563347 13.981484545836263, 78.3497531507495 14.569956142586303 C78.09198102313174 15.027656657429997, 77.83420889551398 15.485357172273691, 77.35887203466841 16.329365901781536 C77.12321112916139 16.691404336454003, 76.88755022365439 17.05344277112647, 76.25730101980412 18.021674793848334 C75.97490793649526 18.40005579894307, 75.6925148531864 18.778436804037813, 75.04956669774295 19.639928758550102 C74.66262328402776 20.09445451000394, 74.27567987031257 20.54898026145777, 73.74063190787246 21.177478043231467 C73.32903226460331 21.602488467866028, 72.91743262133417 22.02749889250059, 72.33587534400982 22.628004528078414 C71.98863683777667 22.943357352011944, 71.64139833154351 23.258710175945474, 70.84106945219536 23.985547688627715 C70.31553974250349 24.404643647174076, 69.79001003281162 24.823739605720437, 69.26235671047331 25.24452908884063 C68.80015227039607 25.56694289773078, 68.33794783031884 25.88935670662093, 67.60622438813229 26.399775304092973 C67.18424747599929 26.65558018803959, 66.76227056386628 26.91138507198621, 65.87947788812404 27.446539179886766 C65.25844840653436 27.77052986264374, 64.63741892494465 28.094520545400716, 64.08921278220309 28.3805193389262 C63.63091377174706 28.583394715897967, 63.17261476129103 28.78627009286974, 62.242785653700295 29.197877856399682 C61.711382926990915 29.39343897206169, 61.179980200281534 29.5890000877237, 60.34778386774407 29.895256030836055 C59.68934455670509 30.090677362133952, 59.03090524566611 30.286098693431853, 58.41199439314951 30.46978818572942 C57.99528638057044 30.564899070326682, 57.57857836799136 30.660009954923947, 56.44337180409324 30.919113445218557 C55.99892029386656 30.990968918619068, 55.554468783639884 31.062824392019575, 54.45000559306196 31.24138543543225 C53.852529088499836 31.29902327525673, 53.25505258393771 31.356661115081213, 52.44008692939246 31.435279871635593 C51.883747609191595 31.45312059078564, 51.32740828899073 31.47096130993569, 50.42187500000001 31.5 C50.42187500000001 31.5, 50.421875 31.5, 50.421875 31.5 C25.87738574036292 31.5, 1.332896480725843 31.5, -50.42187499999999 31.5 C-50.998639369481516 31.48150428927447, -51.57540373896304 31.463008578548937, -52.44008692939244 31.435279871635593 C-53.200156646999915 31.361956860095574, -53.96022636460739 31.28863384855556, -54.450005593061945 31.24138543543225 C-55.208956339127205 31.118684164559358, -55.967907085192465 30.995982893686467, -56.443371804093225 30.919113445218557 C-57.06342711570911 30.77758986658128, -57.683482427324996 30.636066287944004, -58.41199439314947 30.469788185729428 C-59.16852278370711 30.24525453051048, -59.925051174264745 30.02072087529153, -60.347783867744035 29.89525603083607 C-60.953367221840914 29.67239575857726, -61.558950575937786 29.44953548631845, -62.24278565370029 29.197877856399685 C-62.64655075379386 29.0191430238544, -63.05031585388743 28.84040819130912, -64.08921278220308 28.380519338926206 C-64.76777638053396 28.026513144317715, -65.44633997886484 27.67250694970922, -65.87947788812403 27.446539179886773 C-66.29649102678304 27.19374336459046, -66.71350416544205 26.940947549294147, -67.60622438813226 26.399775304092994 C-67.98752740237369 26.133794827699624, -68.36883041661511 25.867814351306258, -69.2623567104733 25.244529088840636 C-69.85622700195313 24.770933334937634, -70.45009729343296 24.297337581034633, -70.84106945219533 23.98554768862774 C-71.26758124866544 23.598200959957328, -71.69409304513555 23.210854231286916, -72.3358753440098 22.628004528078435 C-72.85168302705543 22.095390746735468, -73.36749071010107 21.5627769653925, -73.74063190787244 21.177478043231478 C-74.09727591551957 20.758543698230223, -74.45391992316671 20.339609353228965, -75.04956669774293 19.639928758550113 C-75.4605305283358 19.089274665130855, -75.87149435892864 18.538620571711597, -76.2573010198041 18.021674793848355 C-76.63784009012073 17.43706459279381, -77.01837916043738 16.852454391739265, -77.3588720346684 16.329365901781557 C-77.57667665604605 15.942631741416045, -77.7944812774237 15.555897581050534, -78.3497531507495 14.569956142586314 C-78.63304717266833 13.981690044550854, -78.91634119458715 13.393423946515393, -79.22587262499809 12.750675308355417 C-79.41592544369641 12.281241171749276, -79.60597826239474 11.811807035143135, -79.98363029456745 10.878999214271209 C-80.19649928594981 10.237871728295417, -80.40936827733218 9.596744242319625, -80.61991237065482 8.962618978877522 C-80.73070628247036 8.54011377473968, -80.84150019428591 8.117608570601838, -81.13210423372743 7.009409419623911 C-81.24643218086635 6.422359574285756, -81.36076012800528 5.8353097289476, -81.51810117755518 5.027396693551461 C-81.6213658769385 4.226496077055807, -81.72463057632181 3.425595460560154, -81.77631705789975 3.024725316091999 C-81.80867444330336 2.520732920019218, -81.84103182870699 2.016740523946437, -81.90569081032167 1.0096246935071416 C-81.90569081032167 0.48324758339568696, -81.90569081032167 -0.04312952671576764, -81.90569081032167 -1.0096246935071262 C-81.87204146078473 -1.533740473811041, -81.83839211124779 -2.0578562541149554, -81.77631705789975 -3.024725316091956 C-81.71118543336301 -3.5298733343048583, -81.64605380882628 -4.035021352517761, -81.51810117755518 -5.027396693551446 C-81.40137852029459 -5.626742869242248, -81.28465586303399 -6.226089044933051, -81.13210423372745 -7.009409419623896 C-81.01837560446813 -7.443105973289395, -80.9046469752088 -7.876802526954894, -80.61991237065482 -8.962618978877506 C-80.45067391789354 -9.472338234108875, -80.28143546513226 -9.982057489340242, -79.98363029456746 -10.878999214271168 C-79.75846612710157 -11.43515906116494, -79.53330195963568 -11.991318908058712, -79.22587262499809 -12.750675308355401 C-78.8930427399414 -13.441803686094358, -78.56021285488468 -14.132932063833314, -78.3497531507495 -14.5699561425863 C-78.03439784327259 -15.12990142419916, -77.71904253579568 -15.689846705812021, -77.3588720346684 -16.329365901781546 C-77.02867835325739 -16.836632065847198, -76.69848467184639 -17.34389822991285, -76.25730101980412 -18.021674793848344 C-75.89698143646231 -18.50447020973702, -75.53666185312052 -18.987265625625696, -75.04956669774295 -19.639928758550102 C-74.7205302659465 -20.026433674041574, -74.39149383415005 -20.41293858953304, -73.74063190787246 -21.177478043231467 C-73.26198858798266 -21.67171656836508, -72.78334526809284 -22.1659550934987, -72.33587534400984 -22.628004528078403 C-71.80860568262325 -23.106856883758944, -71.28133602123665 -23.58570923943948, -70.84106945219536 -23.98554768862771 C-70.32084821791472 -24.40041027929808, -69.80062698363409 -24.815272869968446, -69.26235671047331 -25.244529088840626 C-68.67000076849536 -25.65773095128901, -68.07764482651739 -26.0709328137374, -67.6062243881323 -26.39977530409297 C-67.24085856025299 -26.621262216081337, -66.87549273237369 -26.842749128069705, -65.87947788812404 -27.446539179886763 C-65.25104897394095 -27.774390141888155, -64.62262005975785 -28.102241103889547, -64.08921278220309 -28.3805193389262 C-63.473373724110104 -28.653133021727378, -62.857534666017116 -28.925746704528553, -62.2427856537003 -29.19787785639968 C-61.76829954078136 -29.372493132055396, -61.29381342786242 -29.547108407711114, -60.34778386774408 -29.895256030836055 C-59.64833666153738 -30.102848290164896, -58.94888945533068 -30.310440549493737, -58.41199439314951 -30.469788185729417 C-57.90738228780653 -30.584962605872228, -57.40277018246354 -30.70013702601504, -56.44337180409324 -30.919113445218553 C-56.03112753804768 -30.98576190115077, -55.618883272002115 -31.052410357082987, -54.45000559306196 -31.24138543543225 C-53.84184477212321 -31.300053978407814, -53.23368395118446 -31.358722521383378, -52.44008692939246 -31.435279871635593 C-51.73748439308157 -31.45781096744221, -51.03488185677068 -31.480342063248827, -50.42187500000001 -31.5 C-50.42187500000001 -31.5, -50.42187500000001 -31.5, -50.421875 -31.5" stroke="none" stroke-width="0" fill="#ECECFF" style=""/><path d="M-50.421875 -31.5 C-18.66885613499166 -31.5, 13.08416273001668 -31.5, 50.421875 -31.5 M-50.421875 -31.5 C-17.221401841917398 -31.5, 15.979071316165204 -31.5, 50.421875 -31.5 M50.421875 -31.5 C50.421875 -31.5, 50.421875 -31.5, 50.421875 -31.5 M50.421875 -31.5 C50.421875 -31.5, 50.421875 -31.5, 50.421875 -31.5 M50.421875 -31.5 C50.997548288018905 -31.48153927813331, 51.57322157603781 -31.463078556266627, 52.44008692939246 -31.435279871635593 M50.421875 -31.5 C51.216730785060065 -31.47451052206605, 52.01158657012014 -31.449021044132106, 52.44008692939246 -31.435279871635593 M52.44008692939246 -31.435279871635593 C53.2429878608409 -31.35782498440841, 54.04588879228934 -31.280370097181226, 54.45000559306194 -31.241385435432253 M52.44008692939246 -31.435279871635593 C53.023153337497064 -31.379032156485692, 53.60621974560168 -31.32278444133579, 54.45000559306194 -31.241385435432253 M54.45000559306194 -31.241385435432253 C55.23687788656874 -31.11417002530385, 56.023750180075545 -30.986954615175442, 56.443371804093225 -30.91911344521856 M54.45000559306194 -31.241385435432253 C55.1930564864661 -31.121254729432412, 55.93610737987025 -31.001124023432567, 56.443371804093225 -30.91911344521856 M56.443371804093225 -30.91911344521856 C57.20326875463665 -30.745671925048047, 57.963165705180074 -30.572230404877537, 58.41199439314948 -30.469788185729428 M56.443371804093225 -30.91911344521856 C56.93643422284722 -30.80657516567094, 57.429496641601204 -30.694036886123314, 58.41199439314948 -30.469788185729428 M58.41199439314948 -30.469788185729428 C58.8501799782573 -30.339737004152497, 59.288365563365126 -30.20968582257557, 60.34778386774405 -29.895256030836062 M58.41199439314948 -30.469788185729428 C59.00701149012814 -30.293190234654638, 59.60202858710681 -30.116592283579845, 60.34778386774405 -29.895256030836062 M60.34778386774405 -29.895256030836062 C61.06490992598177 -29.631347012363968, 61.78203598421949 -29.367437993891873, 62.24278565370028 -29.197877856399685 M60.34778386774405 -29.895256030836062 C60.97860046838958 -29.663109690593775, 61.60941706903511 -29.430963350351483, 62.24278565370028 -29.197877856399685 M62.24278565370028 -29.197877856399685 C62.86076707264991 -28.92431581399815, 63.47874849159953 -28.650753771596616, 64.08921278220308 -28.380519338926202 M62.24278565370028 -29.197877856399685 C62.766050094914235 -28.96624421036242, 63.28931453612818 -28.734610564325152, 64.08921278220308 -28.380519338926202 M64.08921278220308 -28.380519338926202 C64.747941406534 -28.03686103754858, 65.40667003086493 -27.69320273617096, 65.87947788812403 -27.44653917988677 M64.08921278220308 -28.380519338926202 C64.72465652420063 -28.04900874574722, 65.36010026619819 -27.717498152568236, 65.87947788812403 -27.44653917988677 M65.87947788812403 -27.44653917988677 C66.26422680775441 -27.213302123771207, 66.64897572738481 -26.98006506765564, 67.60622438813228 -26.399775304092984 M65.87947788812403 -27.44653917988677 C66.28315909732156 -27.20182525857712, 66.6868403065191 -26.95711133726747, 67.60622438813228 -26.399775304092984 M67.60622438813228 -26.399775304092984 C68.2041111658308 -25.982715370071954, 68.80199794352932 -25.56565543605093, 69.2623567104733 -25.244529088840633 M67.60622438813228 -26.399775304092984 C68.22030189972493 -25.97142141499298, 68.83437941131758 -25.54306752589298, 69.2623567104733 -25.244529088840633 M69.2623567104733 -25.244529088840633 C69.6169038419256 -24.961787186402827, 69.97145097337791 -24.679045283965017, 70.84106945219533 -23.985547688627737 M69.2623567104733 -25.244529088840633 C69.79161603083745 -24.822458865032235, 70.32087535120161 -24.400388641223838, 70.84106945219533 -23.985547688627737 M70.84106945219533 -23.985547688627737 C71.34723469875796 -23.525861804098103, 71.85339994532059 -23.06617591956847, 72.33587534400982 -22.62800452807842 M70.84106945219533 -23.985547688627737 C71.24842362828791 -23.615599403901335, 71.65577780438049 -23.245651119174937, 72.33587534400982 -22.62800452807842 M72.33587534400982 -22.62800452807842 C72.70527177740989 -22.246572382581636, 73.07466821080997 -21.865140237084848, 73.74063190787243 -21.177478043231485 M72.33587534400982 -22.62800452807842 C72.65927951523317 -22.294063169314065, 72.9826836864565 -21.96012181054971, 73.74063190787243 -21.177478043231485 M73.74063190787243 -21.177478043231485 C74.13084653306905 -20.71910974063436, 74.52106115826565 -20.260741438037236, 75.04956669774293 -19.63992875855011 M73.74063190787243 -21.177478043231485 C74.2219214976362 -20.612127904941477, 74.70321108739998 -20.04677776665147, 75.04956669774293 -19.63992875855011 M75.04956669774293 -19.63992875855011 C75.41226391855663 -19.153947525056306, 75.77496113937035 -18.667966291562504, 76.2573010198041 -18.02167479384835 M75.04956669774293 -19.63992875855011 C75.41064578790014 -19.15611567272129, 75.77172487805734 -18.672302586892467, 76.2573010198041 -18.02167479384835 M76.2573010198041 -18.02167479384835 C76.54540125272088 -17.579075470343426, 76.83350148563764 -17.136476146838504, 77.3588720346684 -16.329365901781543 M76.2573010198041 -18.02167479384835 C76.56671419253223 -17.546333071467494, 76.87612736526037 -17.070991349086633, 77.3588720346684 -16.329365901781543 M77.3588720346684 -16.329365901781543 C77.66779456529807 -15.78084266685025, 77.97671709592775 -15.232319431918954, 78.3497531507495 -14.56995614258631 M77.3588720346684 -16.329365901781543 C77.59892439562212 -15.903128626970801, 77.83897675657585 -15.47689135216006, 78.3497531507495 -14.56995614258631 M78.3497531507495 -14.56995614258631 C78.69676082889725 -13.849387274137637, 79.04376850704499 -13.128818405688962, 79.22587262499809 -12.750675308355413 M78.3497531507495 -14.56995614258631 C78.58369291509018 -14.084175216423805, 78.81763267943086 -13.598394290261302, 79.22587262499809 -12.750675308355413 M79.22587262499809 -12.750675308355413 C79.39947192585028 -12.321881678936363, 79.57307122670245 -11.893088049517313, 79.98363029456745 -10.878999214271206 M79.22587262499809 -12.750675308355413 C79.41868476886707 -12.274425585229825, 79.61149691273606 -11.798175862104236, 79.98363029456745 -10.878999214271206 M79.98363029456745 -10.878999214271206 C80.16862328960977 -10.321829787834776, 80.35361628465209 -9.764660361398349, 80.61991237065482 -8.962618978877531 M79.98363029456745 -10.878999214271206 C80.20091094230708 -10.224584522249334, 80.4181915900467 -9.57016983022746, 80.61991237065482 -8.962618978877531 M80.61991237065482 -8.962618978877531 C80.75052421170022 -8.464539421441396, 80.88113605274563 -7.9664598640052615, 81.13210423372745 -7.009409419623907 M80.61991237065482 -8.962618978877531 C80.77688842158756 -8.364001262820164, 80.93386447252028 -7.765383546762795, 81.13210423372745 -7.009409419623907 M81.13210423372745 -7.009409419623907 C81.26111064625687 -6.346988756800288, 81.39011705878629 -5.684568093976668, 81.51810117755518 -5.027396693551458 M81.13210423372745 -7.009409419623907 C81.21638381762739 -6.576651568794048, 81.30066340152734 -6.143893717964191, 81.51810117755518 -5.027396693551458 M81.51810117755518 -5.027396693551458 C81.61884474038304 -4.246049514325266, 81.71958830321088 -3.4647023350990738, 81.77631705789975 -3.024725316091981 M81.51810117755518 -5.027396693551458 C81.60035730769728 -4.389434391479475, 81.68261343783938 -3.751472089407493, 81.77631705789975 -3.024725316091981 M81.77631705789975 -3.024725316091981 C81.81176194343293 -2.4726426133159953, 81.84720682896611 -1.9205599105400097, 81.90569081032167 -1.0096246935071378 M81.77631705789975 -3.024725316091981 C81.82187165941397 -2.315175626495425, 81.8674262609282 -1.6056259368988686, 81.90569081032167 -1.0096246935071378 M81.90569081032167 -1.0096246935071378 C81.90569081032167 -0.38920101821137776, 81.90569081032167 0.23122265708438228, 81.90569081032167 1.00962469350713 M81.90569081032167 -1.0096246935071378 C81.90569081032167 -0.24111271594509898, 81.90569081032167 0.5273992616169398, 81.90569081032167 1.00962469350713 M81.90569081032167 1.00962469350713 C81.86661401437945 1.61827733252908, 81.82753721843724 2.22692997155103, 81.77631705789975 3.02472531609196 M81.90569081032167 1.00962469350713 C81.86988300813199 1.5673601161491135, 81.83407520594231 2.125095538791097, 81.77631705789975 3.02472531609196 M81.77631705789975 3.02472531609196 C81.72443779424043 3.4270906403142942, 81.6725585305811 3.829455964536628, 81.51810117755518 5.027396693551435 M81.77631705789975 3.02472531609196 C81.68400433232625 3.7406845864304357, 81.59169160675276 4.4566438567689115, 81.51810117755518 5.027396693551435 M81.51810117755518 5.027396693551435 C81.40589062936733 5.603574142788244, 81.2936800811795 6.179751592025053, 81.13210423372745 7.0094094196239 M81.51810117755518 5.027396693551435 C81.39415572353712 5.663830404053145, 81.27021026951908 6.300264114554853, 81.13210423372745 7.0094094196239 M81.13210423372745 7.0094094196239 C80.92972604710282 7.781165156484518, 80.72734786047819 8.552920893345137, 80.61991237065482 8.96261897887751 M81.13210423372745 7.0094094196239 C80.96885573860109 7.631946683886056, 80.80560724347473 8.254483948148213, 80.61991237065482 8.96261897887751 M80.61991237065482 8.96261897887751 C80.42725487312003 9.542872665648616, 80.23459737558525 10.123126352419721, 79.98363029456746 10.878999214271184 M80.61991237065482 8.96261897887751 C80.48776142311746 9.360636577465906, 80.35561047558011 9.758654176054302, 79.98363029456746 10.878999214271184 M79.98363029456746 10.878999214271184 C79.81157606444502 11.303976489115854, 79.63952183432258 11.728953763960524, 79.22587262499809 12.750675308355405 M79.98363029456746 10.878999214271184 C79.74800946834438 11.460987210460951, 79.51238864212131 12.042975206650718, 79.22587262499809 12.750675308355405 M79.22587262499809 12.750675308355405 C78.98793537916855 13.244757090361958, 78.74999813333899 13.73883887236851, 78.3497531507495 14.569956142586303 M79.22587262499809 12.750675308355405 C78.95275693568381 13.317805880956119, 78.67964124636953 13.884936453556833, 78.3497531507495 14.569956142586303 M78.3497531507495 14.569956142586303 C78.03958513490379 15.120690862637742, 77.72941711905807 15.671425582689182, 77.35887203466841 16.329365901781536 M78.3497531507495 14.569956142586303 C78.00903386900958 15.174937728884036, 77.66831458726966 15.779919315181766, 77.35887203466841 16.329365901781536 M77.35887203466841 16.329365901781536 C77.07340313613675 16.767922789058705, 76.7879342376051 17.206479676335874, 76.25730101980412 18.021674793848334 M77.35887203466841 16.329365901781536 C76.94431354067301 16.966239073101015, 76.52975504667761 17.603112244420494, 76.25730101980412 18.021674793848334 M76.25730101980412 18.021674793848334 C75.90989673275602 18.487164889311153, 75.56249244570792 18.952654984773968, 75.04956669774295 19.639928758550102 M76.25730101980412 18.021674793848334 C75.79596293498335 18.639825798744024, 75.33462485016258 19.257976803639718, 75.04956669774295 19.639928758550102 M75.04956669774295 19.639928758550102 C74.54046065886345 20.237953680772225, 74.03135461998396 20.835978602994345, 73.74063190787246 21.177478043231467 M75.04956669774295 19.639928758550102 C74.76107391404395 19.978808797987377, 74.47258113034495 20.317688837424654, 73.74063190787246 21.177478043231467 M73.74063190787246 21.177478043231467 C73.22607259873422 21.708802776021642, 72.71151328959598 22.240127508811817, 72.33587534400982 22.628004528078414 M73.74063190787246 21.177478043231467 C73.28981144328965 21.642987185961694, 72.83899097870686 22.108496328691924, 72.33587534400982 22.628004528078414 M72.33587534400982 22.628004528078414 C71.80466062397394 23.11043968164371, 71.27344590393805 23.592874835209013, 70.84106945219536 23.985547688627715 M72.33587534400982 22.628004528078414 C71.92869631614299 22.997793747820364, 71.52151728827614 23.367582967562313, 70.84106945219536 23.985547688627715 M70.84106945219536 23.985547688627715 C70.3102752750714 24.4088419198578, 69.77948109794745 24.832136151087887, 69.26235671047331 25.24452908884063 M70.84106945219536 23.985547688627715 C70.29426712780955 24.421607991304445, 69.74746480342374 24.857668293981177, 69.26235671047331 25.24452908884063 M69.26235671047331 25.24452908884063 C68.89020050557814 25.504129146993044, 68.51804430068297 25.763729205145456, 67.60622438813229 26.399775304092973 M69.26235671047331 25.24452908884063 C68.8790919919097 25.511877965248342, 68.49582727334608 25.779226841656055, 67.60622438813229 26.399775304092973 M67.60622438813229 26.399775304092973 C67.1333451265078 26.68643749143674, 66.6604658648833 26.973099678780507, 65.87947788812404 27.446539179886766 M67.60622438813229 26.399775304092973 C66.93067863405712 26.80929511016085, 66.25513287998196 27.218814916228727, 65.87947788812404 27.446539179886766 M65.87947788812404 27.446539179886766 C65.18221908515694 27.810298650779128, 64.48496028218983 28.174058121671486, 64.08921278220309 28.3805193389262 M65.87947788812404 27.446539179886766 C65.4355963746384 27.67811188115255, 64.99171486115276 27.90968458241833, 64.08921278220309 28.3805193389262 M64.08921278220309 28.3805193389262 C63.400804608857925 28.685257216363198, 62.712396435512765 28.989995093800193, 62.242785653700295 29.197877856399682 M64.08921278220309 28.3805193389262 C63.59825064155036 28.597853714718717, 63.10728850089762 28.815188090511235, 62.242785653700295 29.197877856399682 M62.242785653700295 29.197877856399682 C61.76615493679878 29.37328236614549, 61.28952421989725 29.5486868758913, 60.34778386774407 29.895256030836055 M62.242785653700295 29.197877856399682 C61.5087004577346 29.468027994324224, 60.77461526176889 29.738178132248766, 60.34778386774407 29.895256030836055 M60.34778386774407 29.895256030836055 C59.65110283005636 30.102027305868376, 58.954421792368656 30.3087985809007, 58.41199439314951 30.46978818572942 M60.34778386774407 29.895256030836055 C59.63746452054595 30.10607508454212, 58.927145173347824 30.316894138248188, 58.41199439314951 30.46978818572942 M58.41199439314951 30.46978818572942 C57.75746087720688 30.619181189512968, 57.10292736126425 30.768574193296516, 56.44337180409324 30.919113445218557 M58.41199439314951 30.46978818572942 C57.89397203735114 30.58802340802861, 57.37594968155276 30.706258630327802, 56.44337180409324 30.919113445218557 M56.44337180409324 30.919113445218557 C55.777965734929644 31.026691138179793, 55.11255966576604 31.134268831141025, 54.45000559306196 31.24138543543225 M56.44337180409324 30.919113445218557 C55.945570329934505 30.99959412705245, 55.44776885577576 31.080074808886348, 54.45000559306196 31.24138543543225 M54.45000559306196 31.24138543543225 C53.71629438774796 31.312165672992066, 52.982583182433956 31.382945910551882, 52.44008692939246 31.435279871635593 M54.45000559306196 31.24138543543225 C53.72072496580499 31.311738260455453, 52.99144433854802 31.382091085478656, 52.44008692939246 31.435279871635593 M52.44008692939246 31.435279871635593 C51.90382162781068 31.452476856080235, 51.3675563262289 31.469673840524873, 50.42187500000001 31.5 M52.44008692939246 31.435279871635593 C51.72310201805404 31.458272182215747, 51.006117106715635 31.4812644927959, 50.42187500000001 31.5 M50.42187500000001 31.5 C50.42187500000001 31.5, 50.421875 31.5, 50.421875 31.5 M50.42187500000001 31.5 C50.42187500000001 31.5, 50.421875 31.5, 50.421875 31.5 M50.421875 31.5 C24.368865492776116 31.5, -1.6841440144477673 31.5, -50.42187499999999 31.5 M50.421875 31.5 C18.497005560333868 31.5, -13.427863879332264 31.5, -50.42187499999999 31.5 M-50.42187499999999 31.5 C-50.88385468983804 31.48518521053581, -51.34583437967608 31.470370421071618, -52.44008692939244 31.435279871635593 M-50.42187499999999 31.5 C-51.11849998396629 31.477660592662474, -51.81512496793258 31.455321185324948, -52.44008692939244 31.435279871635593 M-52.44008692939244 31.435279871635593 C-52.88862516047905 31.392009927928815, -53.33716339156566 31.348739984222036, -54.450005593061945 31.24138543543225 M-52.44008692939244 31.435279871635593 C-53.17424505126244 31.364456520573118, -53.908403173132434 31.293633169510642, -54.450005593061945 31.24138543543225 M-54.450005593061945 31.24138543543225 C-55.01335625458211 31.150307269327296, -55.57670691610229 31.059229103222346, -56.443371804093225 30.919113445218557 M-54.450005593061945 31.24138543543225 C-55.17063455982376 31.1248797326473, -55.891263526585576 31.008374029862352, -56.443371804093225 30.919113445218557 M-56.443371804093225 30.919113445218557 C-56.94914914531647 30.80367306758995, -57.45492648653972 30.688232689961346, -58.41199439314947 30.469788185729428 M-56.443371804093225 30.919113445218557 C-57.0549036601107 30.77953528970087, -57.66643551612818 30.639957134183184, -58.41199439314947 30.469788185729428 M-58.41199439314947 30.469788185729428 C-59.014497827020676 30.290968329161515, -59.61700126089188 30.112148472593606, -60.347783867744035 29.89525603083607 M-58.41199439314947 30.469788185729428 C-58.93308579503973 30.315130992912984, -59.45417719693 30.16047380009654, -60.347783867744035 29.89525603083607 M-60.347783867744035 29.89525603083607 C-61.03108272946817 29.64379573337615, -61.71438159119229 29.392335435916237, -62.24278565370029 29.197877856399685 M-60.347783867744035 29.89525603083607 C-60.79614010794108 29.730256789883907, -61.24449634813813 29.56525754893174, -62.24278565370029 29.197877856399685 M-62.24278565370029 29.197877856399685 C-62.61472287069472 29.033232283561784, -62.98666008768915 28.868586710723882, -64.08921278220308 28.380519338926206 M-62.24278565370029 29.197877856399685 C-62.66267592232477 29.012004890081897, -63.08256619094925 28.82613192376411, -64.08921278220308 28.380519338926206 M-64.08921278220308 28.380519338926206 C-64.50411789941782 28.164063605034684, -64.91902301663256 27.947607871143163, -65.87947788812403 27.446539179886773 M-64.08921278220308 28.380519338926206 C-64.58914283198824 28.119706152173766, -65.0890728817734 27.858892965421322, -65.87947788812403 27.446539179886773 M-65.87947788812403 27.446539179886773 C-66.48848057177793 27.07735817415876, -67.09748325543181 26.70817716843075, -67.60622438813226 26.399775304092994 M-65.87947788812403 27.446539179886773 C-66.41453648352355 27.122183515002263, -66.94959507892305 26.797827850117752, -67.60622438813226 26.399775304092994 M-67.60622438813226 26.399775304092994 C-67.99310754626993 26.129902360878148, -68.37999070440759 25.860029417663302, -69.2623567104733 25.244529088840636 M-67.60622438813226 26.399775304092994 C-68.12845547825734 26.035489502641276, -68.6506865683824 25.671203701189558, -69.2623567104733 25.244529088840636 M-69.2623567104733 25.244529088840636 C-69.6882492379446 24.904891131658406, -70.1141417654159 24.565253174476176, -70.84106945219533 23.98554768862774 M-69.2623567104733 25.244529088840636 C-69.73195691551562 24.87003542190566, -70.20155712055795 24.49554175497068, -70.84106945219533 23.98554768862774 M-70.84106945219533 23.98554768862774 C-71.18994897240022 23.668704539223924, -71.53882849260512 23.351861389820108, -72.3358753440098 22.628004528078435 M-70.84106945219533 23.98554768862774 C-71.24821809732458 23.61578606168418, -71.65536674245385 23.246024434740622, -72.3358753440098 22.628004528078435 M-72.3358753440098 22.628004528078435 C-72.71646679182116 22.235012611074232, -73.0970582396325 21.84202069407003, -73.74063190787244 21.177478043231478 M-72.3358753440098 22.628004528078435 C-72.70404623978654 22.24783785079627, -73.07221713556326 21.867671173514104, -73.74063190787244 21.177478043231478 M-73.74063190787244 21.177478043231478 C-74.16388602749846 20.68029967047708, -74.58714014712449 20.18312129772268, -75.04956669774293 19.639928758550113 M-73.74063190787244 21.177478043231478 C-74.21761666616163 20.617184604943365, -74.69460142445082 20.056891166655255, -75.04956669774293 19.639928758550113 M-75.04956669774293 19.639928758550113 C-75.45518903340226 19.096431781721588, -75.8608113690616 18.552934804893063, -76.2573010198041 18.021674793848355 M-75.04956669774293 19.639928758550113 C-75.37933353745696 19.198071235710447, -75.70910037717098 18.75621371287078, -76.2573010198041 18.021674793848355 M-76.2573010198041 18.021674793848355 C-76.49604457528396 17.654900581010182, -76.7347881307638 17.28812636817201, -77.3588720346684 16.329365901781557 M-76.2573010198041 18.021674793848355 C-76.51795826514335 17.62123526873651, -76.77861551048258 17.220795743624663, -77.3588720346684 16.329365901781557 M-77.3588720346684 16.329365901781557 C-77.6969717485909 15.729035623403671, -78.03507146251339 15.128705345025784, -78.3497531507495 14.569956142586314 M-77.3588720346684 16.329365901781557 C-77.65123322163474 15.81024900954241, -77.94359440860107 15.291132117303263, -78.3497531507495 14.569956142586314 M-78.3497531507495 14.569956142586314 C-78.64421661886674 13.958496450531998, -78.93868008698395 13.347036758477683, -79.22587262499809 12.750675308355417 M-78.3497531507495 14.569956142586314 C-78.69984950002845 13.842973582446735, -79.04994584930738 13.115991022307156, -79.22587262499809 12.750675308355417 M-79.22587262499809 12.750675308355417 C-79.5090492685525 12.051223523928059, -79.79222591210691 11.3517717395007, -79.98363029456745 10.878999214271209 M-79.22587262499809 12.750675308355417 C-79.46849175916938 12.151401356230474, -79.71111089334067 11.552127404105534, -79.98363029456745 10.878999214271209 M-79.98363029456745 10.878999214271209 C-80.11416165902331 10.48585954187876, -80.24469302347916 10.09271986948631, -80.61991237065482 8.962618978877522 M-79.98363029456745 10.878999214271209 C-80.23326192783172 10.12714850827864, -80.482893561096 9.375297802286072, -80.61991237065482 8.962618978877522 M-80.61991237065482 8.962618978877522 C-80.81998773147342 8.199644914866273, -81.02006309229202 7.436670850855023, -81.13210423372743 7.009409419623911 M-80.61991237065482 8.962618978877522 C-80.81053602111709 8.235688382852135, -81.00115967157936 7.5087577868267505, -81.13210423372743 7.009409419623911 M-81.13210423372743 7.009409419623911 C-81.23808812667124 6.465204529061132, -81.34407201961507 5.920999638498353, -81.51810117755518 5.027396693551461 M-81.13210423372743 7.009409419623911 C-81.26187880713978 6.343044413017327, -81.39165338055213 5.6766794064107415, -81.51810117755518 5.027396693551461 M-81.51810117755518 5.027396693551461 C-81.58000440074653 4.547287518653421, -81.64190762393788 4.067178343755382, -81.77631705789975 3.024725316091999 M-81.51810117755518 5.027396693551461 C-81.57946348537314 4.551482751473657, -81.64082579319108 4.075568809395851, -81.77631705789975 3.024725316091999 M-81.77631705789975 3.024725316091999 C-81.80421404861323 2.5902071676838543, -81.83211103932672 2.1556890192757097, -81.90569081032167 1.0096246935071416 M-81.77631705789975 3.024725316091999 C-81.81169043332716 2.4737564409352393, -81.84706380875458 1.9227875657784794, -81.90569081032167 1.0096246935071416 M-81.90569081032167 1.0096246935071416 C-81.90569081032167 0.5410206997542084, -81.90569081032167 0.07241670600127514, -81.90569081032167 -1.0096246935071262 M-81.90569081032167 1.0096246935071416 C-81.90569081032167 0.2879877699661013, -81.90569081032167 -0.43364915357493894, -81.90569081032167 -1.0096246935071262 M-81.90569081032167 -1.0096246935071262 C-81.8665154805607 -1.619812076291376, -81.82734015079971 -2.2299994590756254, -81.77631705789975 -3.024725316091956 M-81.90569081032167 -1.0096246935071262 C-81.87586020358287 -1.474260472296239, -81.84602959684408 -1.9388962510853518, -81.77631705789975 -3.024725316091956 M-81.77631705789975 -3.024725316091956 C-81.69296452588081 -3.671191094611662, -81.60961199386188 -4.317656873131368, -81.51810117755518 -5.027396693551446 M-81.77631705789975 -3.024725316091956 C-81.67627778130833 -3.8006101903453953, -81.57623850471691 -4.576495064598835, -81.51810117755518 -5.027396693551446 M-81.51810117755518 -5.027396693551446 C-81.39438090572038 -5.662674141134413, -81.27066063388558 -6.29795158871738, -81.13210423372745 -7.009409419623896 M-81.51810117755518 -5.027396693551446 C-81.40214034881579 -5.622831040798392, -81.2861795200764 -6.218265388045338, -81.13210423372745 -7.009409419623896 M-81.13210423372745 -7.009409419623896 C-80.98651410949097 -7.5646076624965515, -80.8409239852545 -8.119805905369207, -80.61991237065482 -8.962618978877506 M-81.13210423372745 -7.009409419623896 C-80.9965006981298 -7.526524471801827, -80.86089716253215 -8.043639523979758, -80.61991237065482 -8.962618978877506 M-80.61991237065482 -8.962618978877506 C-80.43393291521005 -9.522759466874987, -80.24795345976528 -10.082899954872468, -79.98363029456746 -10.878999214271168 M-80.61991237065482 -8.962618978877506 C-80.369120346283 -9.717964598002776, -80.11832832191118 -10.473310217128045, -79.98363029456746 -10.878999214271168 M-79.98363029456746 -10.878999214271168 C-79.80706161920892 -11.315127256129855, -79.63049294385038 -11.751255297988545, -79.22587262499809 -12.750675308355401 M-79.98363029456746 -10.878999214271168 C-79.81367308362243 -11.298796811204538, -79.64371587267739 -11.718594408137907, -79.22587262499809 -12.750675308355401 M-79.22587262499809 -12.750675308355401 C-79.00827349263017 -13.202524562592972, -78.79067436026224 -13.654373816830544, -78.3497531507495 -14.5699561425863 M-79.22587262499809 -12.750675308355401 C-79.02561870445537 -13.166506859109868, -78.82536478391263 -13.582338409864336, -78.3497531507495 -14.5699561425863 M-78.3497531507495 -14.5699561425863 C-78.06743855758646 -15.071234290199774, -77.7851239644234 -15.57251243781325, -77.3588720346684 -16.329365901781546 M-78.3497531507495 -14.5699561425863 C-77.9870742572665 -15.213929243185678, -77.6243953637835 -15.857902343785055, -77.3588720346684 -16.329365901781546 M-77.3588720346684 -16.329365901781546 C-76.92738441747248 -16.992246752443123, -76.49589680027655 -17.655127603104695, -76.25730101980412 -18.021674793848344 M-77.3588720346684 -16.329365901781546 C-77.0970690874387 -16.73156553266118, -76.835266140209 -17.133765163540808, -76.25730101980412 -18.021674793848344 M-76.25730101980412 -18.021674793848344 C-75.86300345024473 -18.54999761581037, -75.46870588068533 -19.078320437772394, -75.04956669774295 -19.639928758550102 M-76.25730101980412 -18.021674793848344 C-75.83682499199263 -18.585074364961564, -75.41634896418115 -19.148473936074783, -75.04956669774295 -19.639928758550102 M-75.04956669774295 -19.639928758550102 C-74.69570500155653 -20.055594842191592, -74.3418433053701 -20.471260925833082, -73.74063190787246 -21.177478043231467 M-75.04956669774295 -19.639928758550102 C-74.6171706975044 -20.147845704459712, -74.18477469726585 -20.655762650369326, -73.74063190787246 -21.177478043231467 M-73.74063190787246 -21.177478043231467 C-73.41245298995436 -21.516349719972144, -73.08427407203628 -21.855221396712817, -72.33587534400984 -22.628004528078403 M-73.74063190787246 -21.177478043231467 C-73.1967545421266 -21.739076076526224, -72.65287717638074 -22.30067410982098, -72.33587534400984 -22.628004528078403 M-72.33587534400984 -22.628004528078403 C-71.86018868076299 -23.060010569659777, -71.38450201751613 -23.492016611241148, -70.84106945219536 -23.98554768862771 M-72.33587534400984 -22.628004528078403 C-71.75109311970786 -23.15908827169967, -71.16631089540589 -23.69017201532094, -70.84106945219536 -23.98554768862771 M-70.84106945219536 -23.98554768862771 C-70.37286527862086 -24.358928057617046, -69.90466110504637 -24.732308426606384, -69.26235671047331 -25.244529088840626 M-70.84106945219536 -23.98554768862771 C-70.23580851378522 -24.468227180339795, -69.63054757537508 -24.950906672051875, -69.26235671047331 -25.244529088840626 M-69.26235671047331 -25.244529088840626 C-68.88227796098533 -25.509655571139554, -68.50219921149737 -25.774782053438482, -67.6062243881323 -26.39977530409297 M-69.26235671047331 -25.244529088840626 C-68.73281473704752 -25.6139146459999, -68.20327276362171 -25.98330020315917, -67.6062243881323 -26.39977530409297 M-67.6062243881323 -26.39977530409297 C-67.01003871013538 -26.761186565670638, -66.41385303213846 -27.12259782724831, -65.87947788812404 -27.446539179886763 M-67.6062243881323 -26.39977530409297 C-67.03473288378397 -26.74621681248579, -66.46324137943563 -27.092658320878613, -65.87947788812404 -27.446539179886763 M-65.87947788812404 -27.446539179886763 C-65.23643424846195 -27.782014634809375, -64.59339060879984 -28.117490089731987, -64.08921278220309 -28.3805193389262 M-65.87947788812404 -27.446539179886763 C-65.2189647187961 -27.791128477246275, -64.55845154946816 -28.135717774605784, -64.08921278220309 -28.3805193389262 M-64.08921278220309 -28.3805193389262 C-63.52644284923677 -28.629640894273464, -62.96367291627045 -28.87876244962073, -62.2427856537003 -29.19787785639968 M-64.08921278220309 -28.3805193389262 C-63.50686822021201 -28.638306001881986, -62.924523658220934 -28.896092664837774, -62.2427856537003 -29.19787785639968 M-62.2427856537003 -29.19787785639968 C-61.767305534681434 -29.37285893548866, -61.291825415662565 -29.547840014577645, -60.34778386774408 -29.895256030836055 M-62.2427856537003 -29.19787785639968 C-61.78325799914496 -29.366988281103122, -61.323730344589606 -29.536098705806562, -60.34778386774408 -29.895256030836055 M-60.34778386774408 -29.895256030836055 C-59.85408058358558 -30.041784574072878, -59.36037729942708 -30.188313117309697, -58.41199439314951 -30.469788185729417 M-60.34778386774408 -29.895256030836055 C-59.76371848841735 -30.06860356959849, -59.17965310909061 -30.24195110836093, -58.41199439314951 -30.469788185729417 M-58.41199439314951 -30.469788185729417 C-57.93616793198039 -30.578392470433425, -57.46034147081128 -30.686996755137436, -56.44337180409324 -30.919113445218553 M-58.41199439314951 -30.469788185729417 C-57.73349610938481 -30.62465099138363, -57.0549978256201 -30.779513797037836, -56.44337180409324 -30.919113445218553 M-56.44337180409324 -30.919113445218553 C-55.809698946508874 -31.02156075862639, -55.1760260889245 -31.124008072034226, -54.45000559306196 -31.24138543543225 M-56.44337180409324 -30.919113445218553 C-55.90466438500304 -31.006207482998626, -55.365956965912844 -31.093301520778702, -54.45000559306196 -31.24138543543225 M-54.45000559306196 -31.24138543543225 C-54.037051636857356 -31.28122260693751, -53.62409768065275 -31.321059778442777, -52.44008692939246 -31.435279871635593 M-54.45000559306196 -31.24138543543225 C-53.71621406140418 -31.312173421977842, -52.9824225297464 -31.382961408523435, -52.44008692939246 -31.435279871635593 M-52.44008692939246 -31.435279871635593 C-51.800977293713565 -31.455774873700378, -51.161867658034666 -31.47626987576516, -50.42187500000001 -31.5 M-52.44008692939246 -31.435279871635593 C-51.89485763963277 -31.452764313733756, -51.349628349873086 -31.470248755831918, -50.42187500000001 -31.5 M-50.42187500000001 -31.5 C-50.42187500000001 -31.5, -50.421875 -31.5, -50.421875 -31.5 M-50.42187500000001 -31.5 C-50.42187500000001 -31.5, -50.421875 -31.5, -50.421875 -31.5" stroke="#9370DB" stroke-width="1.3" fill="none" stroke-dasharray="0 0" style=""/></g><g class="label" style="" transform="translate(-66.546875, -24)"><rect/><foreignObject width="133.09375" height="48"><div xmlns="http://www.w3.org/1999/xhtml" style="display: table-cell; white-space: nowrap; line-height: 1.5; max-width: 200px; text-align: center;"><span class="nodeLabel"><p>client<br />(TCP line protocol)</p></span></div></foreignObject></g></g><g class="node default" id="my-svg-flowchart-rs-1" data-look="classic" transform="translate(371.37890625, 209)"><rect class="basic label-container" style="" x="-131.96875" y="-39" width="263.9375" height="78"/><g class="label" style="" transform="translate(-101.96875, -24)"><rect/><foreignObject width="203.9375" height="48"><div xmlns="http://www.w3.org/1999/xhtml" style="display: table; white-space: break-spaces; line-height: 1.5; max-width: 200px; text-align: center; width: 200px;"><span class="nodeLabel"><p>RaftServer<br /><i>internal/server/raft_server.go</i></p></span></div></foreignObject></g></g><g class="node default" id="my-svg-flowchart-raft-2" data-look="classic" transform="translate(336.63671875, 397)"><rect class="basic label-container" style="" x="-130" y="-51" width="260" height="102"/><g class="label" style="" transform="translate(-100, -36)"><rect/><foreignObject width="200" height="72"><div xmlns="http://www.w3.org/1999/xhtml" style="display: table; white-space: break-spaces; line-height: 1.5; max-width: 200px; text-align: center; width: 200px;"><span class="nodeLabel"><p>raft.Raft<br /><i>election · replication · snapshots</i></p></span></div></foreignObject></g></g><g class="node default" id="my-svg-flowchart-kv-3" data-look="classic" transform="translate(140.59375, 619.4852714538574)"><rect class="basic label-container" style="" x="-97.59375" y="-39" width="195.1875" height="78"/><g class="label" style="" transform="translate(-67.59375, -24)"><rect/><foreignObject width="135.1875" height="48"><div xmlns="http://www.w3.org/1999/xhtml" style="display: table-cell; white-space: nowrap; line-height: 1.5; max-width: 200px; text-align: center;"><span class="nodeLabel"><p>KVStore.Apply<br /><i>internal/kv/store.go</i></p></span></div></foreignObject></g></g><g class="node default" id="my-svg-flowchart-wal-4" data-look="classic" transform="translate(388.3203125, 619.4852714538574)"><path d="M0,11.990177584075976 a57.6015625,11.990177584075976 0,0,0 115.203125,0 a57.6015625,11.990177584075976 0,0,0 -115.203125,0 l0,74.99017758407598 a57.6015625,11.990177584075976 0,0,0 115.203125,0 l0,-74.99017758407598" class="basic label-container outer-path" style="" transform="translate(-57.6015625, -49.48526637611397)"/><g class="label" style="" transform="translate(-50.1015625, -14)"><rect/><foreignObject width="100.203125" height="48"><div xmlns="http://www.w3.org/1999/xhtml" style="display: table-cell; white-space: nowrap; line-height: 1.5; max-width: 200px; text-align: center;"><span class="nodeLabel"><p>WAL + state +<br />snapshot files</p></span></div></foreignObject></g></g><g class="node default" id="my-svg-flowchart-peers-5" data-look="classic" transform="translate(863.1640625, 619.4852714538574)"><rect class="basic label-container" style="" x="-112.5234375" y="-39" width="225.046875" height="78"/><g class="label" style="" transform="translate(-82.5234375, -24)"><rect/><foreignObject width="165.046875" height="48"><div xmlns="http://www.w3.org/1999/xhtml" style="display: table-cell; white-space: nowrap; line-height: 1.5; max-width: 200px; text-align: center;"><span class="nodeLabel"><p>peer nodes<br />(JSON-over-TCP RPC)</p></span></div></foreignObject></g></g></g></g></g><defs><filter id="my-svg-drop-shadow" height="130%" width="130%"><feDropShadow dx="4" dy="4" stdDeviation="0" flood-opacity="0.06" flood-color="#000000"/></filter></defs><defs><filter id="my-svg-drop-shadow-small" height="150%" width="150%"><feDropShadow dx="2" dy="2" stdDeviation="0" flood-opacity="0.06" flood-color="#000000"/></filter></defs></svg>